<?xml version="1.0" encoding="utf-8"?>
<!-- Generator: Adobe Illustrator 27.8.0, SVG Export Plug-In . SVG Version: 6.00 Build 0)  -->
<svg version="1.1" id="Livello_1" xmlns="http://www.w3.org/2000/svg" xmlns:xlink="http://www.w3.org/1999/xlink" x="0px" y="0px"
	 viewBox="0 0 283.5 283.5" style="enable-background:new 0 0 283.5 283.5;" xml:space="preserve">
<style type="text/css">
	.st0{fill:#FFD618;}
	.st1{fill:#FFFFFF;}
</style>
<path d="M108.6,138.1c0,1.3-0.2,2.4-0.5,3.4c-0.3,1-0.8,1.9-1.3,2.7c-0.5,0.8-1.2,1.4-1.9,2c-0.7,0.5-1.4,1-2.2,1.3
	s-1.6,0.6-2.3,0.8c-0.8,0.2-1.5,0.2-2.2,0.2H84.8c-1.3,0-2.4-0.2-3.4-0.5c-1-0.3-1.9-0.8-2.7-1.3c-0.8-0.5-1.4-1.2-2-1.9
	c-0.5-0.7-1-1.4-1.3-2.2c-0.3-0.8-0.6-1.6-0.8-2.3c-0.2-0.8-0.2-1.5-0.2-2.2v-10c0-1.9,0.3-3.5,1-4.8c0.7-1.3,1.6-2.4,2.6-3.2
	c1-0.8,2.2-1.4,3.4-1.8c1.2-0.4,2.3-0.5,3.4-0.5h13.4v7.4H84.9c-1,0-1.7,0.3-2.3,0.8c-0.5,0.5-0.8,1.2-0.8,2.2v10
	c0,1,0.3,1.8,0.8,2.3c0.5,0.5,1.2,0.8,2.2,0.8h13.4c1,0,1.8-0.3,2.3-0.8c0.5-0.5,0.7-1.3,0.7-2.2v-33.5h7.4V138.1z"/>
<path d="M123.2,111.3h-7.4v-6.7h7.4V111.3z M123.2,148.5h-7.4v-30.9h7.4V148.5z"/>
<path d="M178.1,112.1h-7.4v-6.7h7.4V112.1z M178.1,149.3h-7.4v-30.9h7.4V149.3z"/>
<path d="M165.4,199.2c0,1-0.2,2.1-0.5,3.3c-0.4,1.2-0.9,2.3-1.8,3.3c-0.8,1-1.9,1.9-3.2,2.6c-1.3,0.7-2.9,1-4.8,1h-13.4
	c-1,0-2.1-0.2-3.3-0.5c-1.2-0.4-2.3-0.9-3.3-1.8c-1-0.8-1.9-1.9-2.6-3.2c-0.7-1.3-1-2.9-1-4.8c0-1,0.2-2.1,0.5-3.3
	c0.4-1.2,0.9-2.3,1.8-3.3c0.8-1,1.9-1.9,3.2-2.6c1.3-0.7,2.9-1,4.8-1h13.4v7.1h-13.4c-1,0-1.8,0.3-2.3,0.9c-0.6,0.6-0.8,1.4-0.8,2.3
	c0,1,0.3,1.7,1,2.3c0.6,0.5,1.4,0.8,2.3,0.8h13.3c1,0,1.8-0.3,2.3-0.9c0.6-0.6,0.8-1.4,0.8-2.3v-10.4c0-1-0.3-1.7-0.9-2.3
	s-1.4-0.9-2.3-0.9h-23.6v-7h23.6c1,0,2.1,0.2,3.3,0.5c1.2,0.4,2.3,0.9,3.3,1.8c1,0.8,1.9,1.9,2.6,3.2c0.7,1.3,1,2.9,1,4.8V199.2z"/>
<path d="M184.4,198.4h-3.3c-1.1,0-2.2-0.2-3.4-0.5c-1.2-0.4-2.3-1-3.4-1.8c-1-0.8-1.9-1.9-2.6-3.2c-0.7-1.3-1-2.9-1-4.9v-36.5h7.4
	V188c0,0.9,0.3,1.6,0.9,2.2c0.6,0.5,1.3,0.8,2.1,0.8h3.3V198.4z"/>
<path d="M221.6,177.8c0,1-0.2,2.1-0.5,3.3c-0.4,1.2-0.9,2.3-1.8,3.3c-0.8,1-1.9,1.9-3.2,2.6c-1.3,0.7-2.9,1-4.8,1H198v-7h13.4
	c1,0,1.8-0.3,2.3-0.9c0.6-0.6,0.8-1.4,0.8-2.3c0-1-0.3-1.7-0.9-2.3c-0.6-0.6-1.4-0.8-2.2-0.8H198c-1,0-1.8,0.3-2.3,0.9
	c-0.6,0.6-0.8,1.4-0.8,2.3v10.4c0,1,0.3,1.8,0.9,2.3c0.6,0.6,1.4,0.8,2.3,0.8h13.3v7.1H198c-1,0-2.1-0.2-3.3-0.5
	c-1.2-0.4-2.3-0.9-3.3-1.8c-1-0.8-1.9-1.9-2.6-3.2c-0.7-1.3-1-2.9-1-4.8v-10.4c0-1,0.2-2.1,0.5-3.3c0.4-1.2,0.9-2.3,1.8-3.3
	c0.8-1,1.9-1.9,3.2-2.6c1.3-0.7,2.9-1,4.8-1h13.4c1,0,2.1,0.2,3.3,0.5c1.2,0.4,2.3,0.9,3.3,1.8c1,0.8,1.9,1.9,2.6,3.2
	C221.2,174.3,221.6,175.9,221.6,177.8z"/>
<g>
	<path class="st0" d="M129.3,91.3c0.6,0.8,1.2,1.5,2,2.1c0.7,0.6,1.5,1.1,2.4,1.5c0.8,0.4,1.7,0.7,2.5,0.9c0.8,0.2,1.6,0.3,2.4,0.3
		h0.1h15.9c1.3,0,2.3,0.4,3.1,1.2c0.7,0.8,1.1,1.8,1.1,3.2c0,1.3-0.4,2.4-1.1,3.2c-0.7,0.8-1.8,1.2-3.1,1.2h-3v6.9h3
		c1.1,0,2.3-0.2,3.6-0.6c1.3-0.4,2.5-1,3.6-1.9c1.1-0.9,2-2.1,2.8-3.5c0.7-1.4,1.1-3.2,1.1-5.3c0-2.1-0.4-3.8-1.1-5.3
		c-0.7-1.4-1.7-2.6-2.8-3.5c-1.1-0.9-2.3-1.5-3.6-1.9c-1.3-0.4-2.5-0.6-3.6-0.6h-15.9c-0.6,0-1.2-0.1-1.7-0.3
		c-0.5-0.2-1-0.5-1.3-0.9c-0.4-0.4-0.6-0.9-0.8-1.4c-0.2-0.5-0.3-1.1-0.3-1.8c0-1.3,0.4-2.4,1.1-3.1c0.7-0.8,1.8-1.2,3.1-1.2h10.3
		v-6.9h-10.3c-0.7,0-1.5,0.1-2.4,0.3c-0.8,0.2-1.7,0.5-2.5,0.8c-0.8,0.4-1.6,0.9-2.4,1.4c-0.8,0.6-1.4,1.3-2,2.1
		c-0.6,0.8-1,1.8-1.4,2.9c-0.3,1.1-0.5,2.3-0.5,3.7c0,1.4,0.2,2.6,0.5,3.7C128.2,89.5,128.7,90.5,129.3,91.3z"/>
	<path class="st0" d="M155.9,151.5h-18.8c-0.9,0-1.7-0.2-2.1-0.7c-0.5-0.5-0.7-1.2-0.7-2.1v-3.1c0-0.8,0.3-1.5,0.8-2
		c0.5-0.5,1.2-0.8,2-0.8h11.7v-6.9h-11.7c-1.2,0-2.3,0.2-3.2,0.5c-0.9,0.3-1.8,0.7-2.5,1.2c-0.7,0.5-1.3,1.1-1.9,1.7
		c-0.5,0.7-0.9,1.3-1.3,2.1c-0.3,0.7-0.6,1.4-0.7,2.2c-0.2,0.7-0.2,1.4-0.2,2.1v3.1c0,1.2,0.2,2.3,0.5,3.2c0.3,0.9,0.7,1.8,1.2,2.5
		c0.5,0.7,1.1,1.3,1.7,1.9c0.7,0.5,1.3,0.9,2.1,1.3c0.7,0.3,1.4,0.6,2.2,0.7c0.7,0.2,1.4,0.2,2.1,0.2h21.4v3.4
		c0,0.9-0.1,1.1-0.4,1.8c-0.3,0.7-0.7,1.9-1.2,2.4c-0.5,0.5-1.1,0.9-1.9,1.2c-0.7,0.3-1.5,0.5-2.4,0.5h-20.3v6.9h20.3
		c0.9,0,1.8-0.1,2.7-0.3c1-0.2,1.9-0.5,2.9-0.9c0.9-0.4,1.9-1,2.7-1.7c0.9-0.7,1.6-1.5,2.3-2.4c0.7-0.9,1.2-2,1.6-3.3
		c0.4-1.2,0.6-2.6,0.6-4.2v-10.4h-7H155.9z"/>
	<path class="st0" d="M164.4,136.8c0.7-1.4,1.1-3.2,1.1-5.3c0-2.1-0.4-3.8-1.1-5.3c-0.7-1.4-1.7-2.6-2.8-3.5
		c-1.1-0.9-2.3-1.5-3.6-1.9c-1.3-0.4-2.5-0.6-3.6-0.6h-15.9c-0.6,0-1.2-0.1-1.7-0.3c-0.5-0.2-1-0.5-1.3-0.9
		c-0.4-0.4-0.6-0.9-0.8-1.4c-0.2-0.5-0.3-1.1-0.3-1.8c0-1.3,0.4-2.4,1.1-3.1c0.7-0.8,1.8-1.2,3.1-1.2h7.9v0.1h2.4v-6.9h0v-0.1h-10.3
		c-0.7,0-1.5,0.1-2.4,0.3c-0.8,0.2-1.7,0.5-2.5,0.8c-0.8,0.4-1.6,0.9-2.4,1.4c-0.8,0.6-1.4,1.3-2,2.1c-0.6,0.8-1,1.8-1.4,2.9
		c-0.3,1.1-0.5,2.3-0.5,3.7c0,1.4,0.2,2.6,0.5,3.7c0.3,1.1,0.8,2,1.4,2.9c0.6,0.8,1.2,1.5,2,2.1c0.7,0.6,1.5,1.1,2.4,1.5
		c0.8,0.4,1.7,0.7,2.5,0.9c0.8,0.2,1.6,0.3,2.4,0.3h0.1h15.9c1.3,0,2.3,0.4,3.1,1.2c0.7,0.8,1.1,1.8,1.1,3.2c0,1.3-0.4,2.4-1.1,3.2
		c-0.7,0.8-1.8,1.2-3.1,1.2h-1.8h-1.2v6.9v0h1.2c0.8,0,1.6,0.1,2.3,0.4c0.7,0.3,1.3,0.7,1.9,1.2c0.5,0.5,0.9,1.1,1.2,1.9
		c0.3,0.7,0.5,1.5,0.5,2.4v0.2h7v-0.2c0-1.6-0.2-3-0.6-4.2c-0.4-1.2-0.9-2.3-1.6-3.3c-0.4-0.5-0.8-1-1.2-1.4
		C163,139,163.8,138,164.4,136.8z"/>
</g>
<g>
	<polygon points="130,167.8 123.4,167.8 123.4,151.7 115.9,151.7 115.9,167.9 106.3,167.9 106.3,174.7 115.9,174.7 115.9,198.4 
		123.4,198.4 123.4,174.7 130,174.7 	"/>
</g>
</svg>
